<svg width="200" height="49" viewBox="0 0 200 49" fill="none" xmlns="http://www.w3.org/2000/svg">
  <!-- Logo -->
  <g transform="scale(0.1)">
    <path d="M225.627 50.983C216.081 45.776 201.329 54.454 192.651 70.075L176.163 97.845C170.088 109.125 170.956 123.01 178.766 134.292L179.634 135.159C187.444 145.573 196.99 155.986 200.461 159.458C202.197 161.193 203.932 163.797 204.8 167.268C207.403 176.814 202.197 187.228 191.783 189.831C182.237 192.434 171.823 187.227 169.22 176.814C168.353 174.21 168.353 171.607 168.353 169.871C169.22 165.532 167.485 159.458 161.41 152.515C155.336 146.441 144.054 158.59 139.715 170.739V171.607C136.245 183.756 133.641 195.037 134.508 195.905C134.508 196.773 135.376 196.773 135.376 197.641C140.583 208.054 137.112 220.203 126.698 225.411C116.285 230.617 104.136 227.146 98.928 216.732C93.722 206.319 97.193 194.169 107.607 188.962C108.475 188.962 108.475 188.095 109.342 188.095C110.21 188.095 111.946 182.888 114.549 175.945C116.285 169.871 117.153 167.268 118.02 164.665C118.888 161.193 120.624 152.515 119.756 149.045C118.888 144.705 114.549 144.705 110.21 147.308C107.607 149.044 102.4 153.383 100.664 155.118C96.325 158.59 92.854 163.797 91.119 168.136C90.251 169.871 88.515 172.475 86.779 174.21C78.969 180.285 67.689 179.417 60.746 171.607C54.671 163.797 55.539 152.515 63.349 145.573C65.953 143.837 68.556 142.102 71.159 142.102C75.499 141.234 91.119 131.688 100.664 124.746C102.4 123.878 105.004 121.275 105.871 120.406C108.475 116.936 105.871 114.332 103.268 114.332C95.458 115.2 86.78 116.068 85.044 118.672C84.176 119.539 83.308 121.275 81.573 122.142C74.631 127.349 64.217 125.614 59.01 118.672C53.803 111.729 55.539 101.315 62.481 96.108C65.085 93.505 69.424 92.638 72.027 92.638C78.102 92.638 93.722 96.108 105.871 93.505L109.342 92.637C122.359 90.034 137.98 78.753 144.054 67.471C144.054 67.471 150.129 57.058 157.071 44.041C164.881 31.024 164.014 16.271 156.203 11.932L141.451 3.254C133.641 -1.085 122.359 -1.085 114.549 3.254L13.885 60.53C6.075 64.868 0 75.28 0 83.959V195.037C0 203.715 6.075 214.129 13.885 218.467L114.549 275.742C122.359 280.082 134.509 280.082 141.451 275.742L242.115 218.468C249.925 214.128 256 203.715 256 195.038V83.958C256 75.28 249.925 64.867 242.115 60.528C242.115 60.528 235.173 56.188 225.627 50.982" fill="#635BFF"/>
  </g>

  <!-- Text IoT -->
  <text x="30" y="35" font-family="Arial" font-size="24" font-weight="bold" fill="#635BFF">IoT</text>
</svg>
